<?xml version="1.0"?>
<svg width="32" height="32" xmlns="http://www.w3.org/2000/svg" xmlns:svg="http://www.w3.org/2000/svg" preserveAspectRatio="xMidYMid meet" version="1.0">
 <g class="layer">
  <title>Layer 1</title>
  <g fill="#000000" id="svg_1" transform="matrix(0.1 0 0 -0.1 0 0)">
   <path d="m25,-25c-24,-23 -25,-31 -25,-135c0,-104 1,-112 25,-135c23,-24 31,-25 135,-25c104,0 112,1 135,25c24,23 25,31 25,135c0,104 -1,112 -25,135c-23,24 -31,25 -135,25c-104,0 -112,-1 -135,-25zm205,-44c33,-23 52,-82 48,-151l-3,-55l-55,-3c-110,-6 -173,38 -173,118c0,96 103,147 183,91z" fill="#2577c9" id="svg_2"/>
   <path d="m120,-141c0,-5 5,-7 10,-4c6,3 10,8 10,11c0,2 -4,4 -10,4c-5,0 -10,-5 -10,-11z" fill="#2577c9" id="svg_3"/>
   <path d="m185,-140c3,-5 8,-10 11,-10c2,0 4,5 4,10c0,6 -5,10 -11,10c-5,0 -7,-4 -4,-10z" fill="#2577c9" id="svg_4"/>
   <path d="m123,-192c7,-4 23,-8 37,-8c14,0 30,4 37,8c6,4 -11,7 -37,7c-26,0 -43,-3 -37,-7z" fill="#2577c9" id="svg_5"/>
  </g>
 </g>
</svg>